<svg width="38" height="38" fill="none" xmlns="http://www.w3.org/2000/svg"><path d="M12.71 30.598c0 .157-.176.282-.398.282-.253.024-.43-.102-.43-.282 0-.158.177-.283.399-.283.23-.024.43.102.43.282Zm-2.383-.354c-.053.157.1.338.33.385.199.078.429 0 .475-.157.046-.157-.1-.338-.33-.409-.199-.055-.421.024-.475.181Zm3.387-.134c-.223.055-.376.205-.353.385.023.157.223.26.452.205.223-.055.376-.205.353-.362-.023-.15-.23-.251-.452-.228ZM18.754 0C8.13 0 0 8.274 0 19.173c0 8.714 5.348 16.17 12.986 18.795.98.18 1.325-.44 1.325-.95 0-.488-.023-3.175-.023-4.825 0 0-5.363 1.178-6.489-2.342 0 0-.873-2.287-2.13-2.876 0 0-1.754-1.234.123-1.21 0 0 1.908.157 2.957 2.027 1.678 3.033 4.49 2.161 5.585 1.643.177-1.258.675-2.13 1.226-2.648-4.283-.488-8.604-1.124-8.604-8.683 0-2.16.583-3.245 1.809-4.628-.2-.51-.85-2.617.199-5.336 1.6-.51 5.286 2.122 5.286 2.122a17.58 17.58 0 0 1 4.811-.668c1.632 0 3.28.228 4.812.668 0 0 3.685-2.64 5.286-2.122 1.05 2.727.398 4.825.2 5.336 1.225 1.39 1.976 2.475 1.976 4.628 0 7.582-4.513 8.188-8.796 8.683.705.62 1.303 1.799 1.303 3.646 0 2.648-.023 5.924-.023 6.569 0 .51.352 1.131 1.325.95C32.806 35.344 38 27.887 38 19.172 38 8.275 29.381 0 18.755 0ZM7.448 27.1c-.1.08-.077.26.053.41.123.125.3.18.399.078.1-.079.076-.26-.054-.409-.122-.125-.299-.18-.398-.078Zm-.828-.636c-.053.103.023.228.177.307.122.078.275.055.329-.055.054-.102-.023-.228-.176-.307-.153-.047-.276-.023-.33.055Zm2.483 2.798c-.123.102-.077.338.1.487.175.18.398.204.497.079.1-.103.054-.338-.1-.488-.168-.18-.398-.204-.497-.078Zm-.874-1.155c-.122.078-.122.283 0 .463.123.181.33.26.43.181.122-.102.122-.306 0-.487-.108-.18-.307-.26-.43-.157Z" fill="#fff"/></svg>