<svg width="38" height="32" fill="none" xmlns="http://www.w3.org/2000/svg"><path d="M34.094 7.975c.024.35.024.7.024 1.05C34.118 19.7 26.282 32 11.96 32A21.444 21.444 0 0 1 0 28.375c.627.075 1.23.1 1.88.1 3.642 0 6.993-1.275 9.67-3.45-3.424-.075-6.294-2.4-7.282-5.6.482.075.964.125 1.47.125.7 0 1.4-.1 2.05-.275-3.568-.75-6.245-4-6.245-7.925v-.1c1.037.6 2.243.975 3.52 1.025-2.097-1.45-3.472-3.925-3.472-6.725 0-1.5.386-2.875 1.061-4.075 3.834 4.9 9.597 8.1 16.059 8.45a9.44 9.44 0 0 1-.193-1.85C18.518 3.625 21.99 0 26.306 0c2.242 0 4.268.975 5.69 2.55A15.006 15.006 0 0 0 36.94.6a8.007 8.007 0 0 1-3.424 4.45c1.568-.175 3.087-.625 4.485-1.25a17.091 17.091 0 0 1-3.906 4.175Z" fill="#fff"/></svg>