<svg width="38" height="24" fill="none" xmlns="http://www.w3.org/2000/svg"><path d="M37.134 1.627C37.395.69 37.134 0 35.878 0h-4.155c-1.058 0-1.545.593-1.806 1.252 0 0-2.116 5.483-5.107 9.038-.966 1.028-1.41 1.358-1.94 1.358-.26 0-.663-.33-.663-1.268V1.627C22.207.502 21.911 0 21.036 0h-6.532a1.03 1.03 0 0 0-1.059 1.012c0 1.066 1.496 1.313 1.651 4.313v6.51c0 1.425-.24 1.688-.769 1.688-1.41 0-4.839-5.505-6.87-11.806C7.046.495 6.644 0 5.58 0H1.425C.24 0 0 .593 0 1.252c0 1.17 1.41 6.983 6.568 14.663C10.003 21.157 14.842 24 19.244 24c2.646 0 2.97-.63 2.97-1.718 0-5.01-.24-5.482 1.086-5.482.614 0 1.672.33 4.141 2.857 2.822 3 3.288 4.343 4.868 4.343h4.155c1.185 0 1.785-.63 1.439-1.875-.79-2.617-6.13-8.002-6.37-8.363-.614-.84-.438-1.215 0-1.965.007-.007 5.079-7.597 5.601-10.17Z" fill="#fff"/></svg>