<svg width="628" height="628" fill="none" xmlns="http://www.w3.org/2000/svg"><g opacity=".25" stroke-opacity=".5"><path transform="rotate(-14.996 618.142 -80.964) skewX(.007)" stroke="url(#a)" d="M.612.354h443.111v443.012H.612z"/><path transform="rotate(-29.994 440.433 96.582) skewX(.013)" stroke="url(#b)" d="M.683.183h443.09v443.033H.683z"/><path transform="rotate(-45 379.736 157)" stroke="url(#c)" d="M.707 0h443.061v443.061H.707z"/><path transform="rotate(-59.994 348.38 188.178) skewX(.013)" stroke="url(#d)" d="M.683-.183h443.033v443.09H.683z"/><path transform="rotate(-74.996 328.566 207.719) skewX(.007)" stroke="url(#e)" d="M.612-.354h443.012v443.111H.612z"/></g><defs><linearGradient id="a" x1="222.055" y1="0" x2="222.055" y2="434.511" gradientUnits="userSpaceOnUse"><stop stop-color="#fff"/><stop offset="1" stop-color="#fff" stop-opacity="0"/></linearGradient><linearGradient id="b" x1="222.045" y1="0" x2="222.045" y2="434.532" gradientUnits="userSpaceOnUse"><stop stop-color="#fff"/><stop offset="1" stop-color="#fff" stop-opacity="0"/></linearGradient><linearGradient id="c" x1="222.031" y1="0" x2="222.031" y2="434.56" gradientUnits="userSpaceOnUse"><stop stop-color="#fff"/><stop offset="1" stop-color="#fff" stop-opacity="0"/></linearGradient><linearGradient id="d" x1="222.016" y1="0" x2="222.016" y2="434.588" gradientUnits="userSpaceOnUse"><stop stop-color="#fff"/><stop offset="1" stop-color="#fff" stop-opacity="0"/></linearGradient><linearGradient id="e" x1="222.006" y1="0" x2="222.006" y2="434.608" gradientUnits="userSpaceOnUse"><stop stop-color="#fff"/><stop offset="1" stop-color="#fff" stop-opacity="0"/></linearGradient></defs></svg>